<svg id="Capa_1" enable-background="new 0 0 512 512" height="512" viewBox="0 0 512 512" width="512" xmlns="http://www.w3.org/2000/svg"><g><g><path d="m406 370-49.09-32.73-180.84 6.02-40.07 26.71-30 132 90-30 90 30 90-30 60 30z" fill="#eefaff"/><path d="m402.85 101.58c11.65-29.4-10.02-61.58-41.85-61.58-.98 0-1.95.03-2.91.09-16.41-18.27-42.6-30.09-72.09-30.09-36.31 0-67.59 17.91-81.82 43.71-13.63-11.25-32.31-16.6-52.14-12.14-21.66 4.89-39.49 22.66-44.43 44.31-3.73 16.38-.76 31.98 6.71 44.61-21.69 3.23-38.32 21.93-38.32 44.51 0 23.71 18.34 43.14 41.6 44.87l258.4 27.72c20.05-5.86 36.1-21.97 41.36-43.04l7.47-29.88c6.95-7.92 11.17-18.3 11.17-29.67 0-20.75-14.05-38.22-33.15-43.42z" fill="#8690a6"/><path d="m203.5 280-37.5-1.48v31.48c0 33.253 26.976 60 60 60h23.42z" fill="#8690a6"/><path d="m335.87 103.37c-10.76 16.06-29.08 26.63-49.87 26.63-13.51 0-25.97-4.46-36-12-5.47 7.29-14.19 12-24 12-16.57 0-30-13.43-30-30-16.57 0-30 13.43-30 30v60h-18.38c-17.08 0-29.97 13.96-30.02 29.87-.023 7.341 2.487 11.576 4.72 19.1 8.215 24.632 31.236 41.03 56.93 41.03h24.25l16.82 67.28c1.073 4.289 3.048 8.158 5.68 11.447v33.563c0 31.83 12.64 62.35 35.15 84.86l24.85 24.85 24.85-24.85c22.51-22.51 35.15-53.03 35.15-84.86v-31.49c3.03-3.14 5.4-6.97 6.84-11.31 28.098-84.306 22.372-67.125 23.16-69.49 0-12.889 0-107.215 0-120 0-26.17-16.76-48.43-40.13-56.63z" fill="#ffdcd5"/></g><g><path d="m446 145c0-21.303-12.345-40.437-30.998-49.496 6.456-33.238-18.561-64.67-52.68-65.488-19.031-19.132-46.565-30.016-76.322-30.016-34.453 0-66.451 15.252-84.593 39.602-15.309-8.987-33.569-11.833-51.569-7.786-25.318 5.716-46.207 26.549-51.978 51.844-3.123 13.711-2.247 27.682 2.401 40.408-20.201 8.3-34.261 28.342-34.261 50.932 0 25.784 18.121 47.876 42.553 53.566.781 3.526 1.412 4.771 4.281 13.566 6.84 20.513 23.012 36.745 43.166 43.879v23.989c0 10.519 2.331 20.767 6.796 30.12l-32.343 21.559c-2.132 1.422-3.637 3.606-4.204 6.105l-30 132c-.801 3.521.359 7.2 3.036 9.626 2.686 2.434 6.464 3.214 9.877 2.077l86.838-28.946 86.838 28.946c2.125.705 4.364.65 6.324 0l86.07-28.69 56.296 28.147c3.457 1.729 7.603 1.311 10.645-1.077 3.042-2.387 4.436-6.313 3.578-10.084l-6.638-29.204c-1.225-5.385-6.583-8.764-11.967-7.534-5.386 1.224-8.76 6.582-7.535 11.968l1.952 8.589-41.092-20.546c-2.372-1.187-5.118-1.382-7.634-.542l-50.196 16.732c21.561-23.908 33.359-54.524 33.359-86.956v-27.784c2.724-3.5 4.821-7.406 6.254-11.654l34.879 23.255 2.531 11.137c1.226 5.396 6.596 8.758 11.967 7.535 5.386-1.224 8.76-6.581 7.535-11.967l-3.415-15.027c-.567-2.498-2.072-4.684-4.203-6.104l-42.734-28.493 16.673-50.025c.34-1.02.513-2.087.513-3.162v-25.361c20.261-8.436 35.684-26.124 41.062-47.665l6.913-27.653c7.772-9.726 12.025-21.816 12.025-34.322zm-314.193 90.808c-2.398-7.827-4.223-10.82-4.207-15.905.035-10.975 9.016-19.903 20.02-19.903h8.38v7.57c0 10.687 4.162 20.733 11.719 28.291l19.252 19.251 3.722 14.888h-11.443c-21.881 0-40.796-14.26-47.443-34.192zm234.193-55.808h-20c-22.056 0-40 17.944-40 40v50h-20c-5.522 0-10 4.478-10 10s4.478 10 10 10h30c5.522 0 10-4.478 10-10v-60c0-11.028 8.972-20 20-20h20v78.377l-22.651 67.965c-.941 2.837-2.47 5.364-4.55 7.52-3.759 3.901-9.015 6.139-14.419 6.139h-74.96c-9.19 0-17.167-6.229-19.398-15.146l-24.32-97.28c-.439-1.758-1.349-3.363-2.63-4.646l-21.21-21.21c-3.78-3.779-5.861-8.804-5.861-14.148v-77.571c0-8.096 4.834-15.083 11.768-18.227 5.038 16.328 20.271 28.227 38.231 28.227 9.312 0 18.314-3.308 25.409-9.124 10.49 5.992 22.292 9.124 34.591 9.124 20.571 0 39.869-8.978 53.088-24.366 16.343 8.512 26.912 25.556 26.912 44.366zm-190 130v-20.091c1.083.05 2.166.091 3.25.091h16.443l14.927 59.707c.781 3.12 1.92 6.072 3.356 8.825-21.733-5.372-37.976-24.956-37.976-48.532zm16.838 152.514-73.15 24.383 25.18-110.789 29.036-19.354c10.97 12.228 25.852 20.192 42.097 22.525v13.011c0 32.432 11.798 63.048 33.358 86.955l-50.196-16.732c-2.054-.685-4.272-.685-6.325.001zm110.94 7.565-17.778 17.778-17.778-17.778c-20.779-20.778-32.222-48.404-32.222-77.789v-12.29h88.38c3.959 0 7.875-.605 11.62-1.748v14.038c0 29.385-11.443 57.011-32.222 77.789zm113.535-302.005c-1.05 1.196-1.799 2.626-2.185 4.171l-7.471 29.882c-3.129 12.53-11.025 23.219-21.658 30.016v-72.143c0-29.689-18.815-56.24-46.819-66.065-4.3-1.511-9.08.082-11.618 3.869-9.311 13.898-24.849 22.196-41.562 22.196-10.924 0-21.294-3.456-29.991-9.993-4.394-3.305-10.678-2.445-14.008 1.991-3.816 5.086-9.648 8.002-16.001 8.002-11.028 0-20-8.972-20-20 0-5.522-4.478-10-10-10-22.056 0-40 17.944-40 40v50h-8.38c-17.879 0-33.086 11.806-38.191 28.022-13.666-4.815-23.429-17.921-23.429-33.022 0-17.207 12.809-32.09 29.793-34.619 7.015-1.045 10.746-8.877 7.135-14.981-6.547-11.068-8.524-24.314-5.568-37.295 4.095-17.943 18.916-32.724 36.875-36.778 15.656-3.52 31.54.158 43.58 10.096 4.812 3.974 12.092 2.612 15.121-2.882 12.914-23.413 41.592-38.541 73.064-38.541 25.424 0 49.593 10.008 64.65 26.772 3.529 3.929 7.646 3.228 10.35 3.228 24.829 0 41.61 25.042 32.553 47.896-1.048 2.646-.92 5.612.354 8.157 1.273 2.546 3.57 4.428 6.316 5.175 15.177 4.133 25.777 18.02 25.777 33.772 0 8.497-3.085 16.691-8.687 23.074z"/><path d="m256 180h-30c-5.522 0-10 4.478-10 10s4.478 10 10 10h30c5.522 0 10-4.478 10-10s-4.478-10-10-10z"/><circle cx="419" cy="429" r="10"/></g></g></svg>