<svg height="512" viewBox="0 0 60 49" width="512" xmlns="http://www.w3.org/2000/svg"><g id="Page-1" fill="none" fill-rule="evenodd"><g id="076---Takeaway-Coffee" fill="rgb(0,0,0)" fill-rule="nonzero"><path id="Shape" d="m10.393 30.61c.9531005.9167974 2.2340009 1.4131644 3.556 1.378 2.104843-.0700123 4.0981099-.9634095 5.551-2.488 2.817-2.808 3.313-6.895 1.1-9.114s-6.3-1.707-9.1 1.114-3.317 6.891-1.107 9.11zm7.7-2.521c-1.851 1.858-4.347 2.415-5.861 1.418.15-.034.306-.062.484-.087 2.012125-.171176 3.6078889-1.7677847 3.778-3.78.0425171-1.1317296.9493328-2.0398526 2.081-2.084.4647257-.0510267.9200915-.1664668 1.353-.343.2211916 1.827859-.4647126 3.6484734-1.837 4.876zm-5.18-5.18c1.0754157-1.1504595 2.555271-1.8387643 4.128-1.92.6210231-.0111333 1.231293.1629311 1.753.5-.155.036-.317.066-.5.092-2.012125.171176-3.6078889 1.7677847-3.778 3.78-.0425171 1.1317296-.9493328 2.0398526-2.081 2.084-.4647257.0510267-.9200915.1664668-1.353.343-.2240129-1.8274709.4588747-3.6491267 1.829-4.879z"/><path id="Shape" d="m49.607 20.39c-2.218-2.207-6.3-1.711-9.11 1.105s-3.314 6.9-1.1 9.115c.9531005.9167974 2.2340009 1.4131644 3.556 1.378 2.1034424-.0710489 4.0950879-.9643631 5.547-2.488 2.821-2.8 3.317-6.891 1.107-9.11zm-7.7 2.519c1.0754157-1.1504595 2.555271-1.8387643 4.128-1.92.6210231-.0111333 1.231293.1629311 1.753.5-.155.036-.317.066-.5.092-2.012125.171176-3.6078889 1.7677847-3.778 3.78-.0425171 1.1317296-.9493328 2.0398526-2.081 2.084-.4647257.0510267-.9200915.1664668-1.353.343-.2225304-1.8284987.4626645-3.650333 1.835-4.879zm5.178 5.182c-1.851 1.858-4.347 2.415-5.861 1.418.15-.034.306-.062.484-.087 2.012125-.171176 3.6078889-1.7677847 3.778-3.78.0425171-1.1317296.9493328-2.0398526 2.081-2.084.4647257-.0510267.9200915-.1664668 1.353-.343.2215004 1.8265046-.462806 3.6460952-1.833 4.874z"/><path id="Shape" d="m3 39h1.18l1.52 7.588c.28511954 1.398799 1.51245236 2.4057129 2.94 2.412h13.72c1.4281608-.0064828 2.6557064-1.0144064 2.94-2.414l1.52-7.586h6.36l1.52 7.588c.2830124 1.4000678 1.5116198 2.4080273 2.94 2.412h13.72c1.4280731-.0038757 2.6565735-1.0113296 2.94-2.411l1.52-7.589h1.18c1.6534434-.0082058 2.9917942-1.3465566 3-3 0-1.6568542-1.3431458-3-3-3h-1.183l1.471-15.851c.0378191-.5572964-.1561262-1.1054814-.536-1.515-.3357181-.3529922-.7887285-.5713191-1.274-.614l.439-4.178c1.2372968-.3952103 2.0786433-1.54312527 2.083-2.842v-.133c-.0033136-1.57039026-1.2141237-2.87397099-2.78-2.993l-.22-.018v-1.856c0-1.65685425-1.3431458-3-3-3h-15c-1.6568542 0-3 1.34314575-3 3v.158c-.7953222-.00750104-1.5604663.30409467-2.1242768.86508612-.5638105.56099144-.8792376 1.32456406-.8757232 2.11991388v1.857c.0043567 1.29887473.8457032 2.4467897 2.083 2.842l.439 4.178c-.4852715.0426809-.9382819.2610078-1.274.614-.3842002.4164624-.5776791.9740727-.534 1.539l1.469 15.827h-6.366l1.471-15.851c.0378191-.5572964-.1561262-1.1054814-.536-1.515-.3357181-.3529922-.7887285-.5713191-1.274-.614l.439-4.178c1.2372968-.3952103 2.0786433-1.54312527 2.083-2.842v-.133c-.0033136-1.57039026-1.2141237-2.87397099-2.78-2.993l-.22-.018v-1.856c0-1.65685425-1.3431458-3-3-3h-15c-1.65685425 0-3 1.34314575-3 3v.158c-.79532221-.00750104-1.56046631.30409467-2.12427681.86508612-.5638105.56099144-.87923758 1.32456406-.87572319 2.11991388v1.857c.00435667 1.29887473.84570321 2.4467897 2.083 2.842l.439 4.178c-.48527154.0426809-.93828194.2610078-1.274.614-.38420024.4164624-.57767906.9740727-.534 1.539l1.469 15.827h-1.183c-.79163734-.006655-1.5520489.3084088-2.107.873-.57530257.5575332-.89788565 1.3258805-.893 2.127 0 1.6568542 1.34314575 3 3 3zm49.341 7.2c-.0951286.4660347-.5053558.8005727-.981.8h-13.72c-.4756442.0005727-.8858714-.3339653-.981-.8l-1.439-7.2h18.56zm-16.811-31.2-.42-4h18.78l-.42 4zm1.47-13h15c.5522847 0 1 .44771525 1 1v1.692l-17-1.392v-.3c0-.55228475.4477153-1 1-1zm-4 4.143c-.0000274-.54840296.4416245-.99451597.99-1h.066l19.872 1.631c.025 0 .047.014.072.014s.02-.006.03-.006l1.038.085c.5255656.03581995.9332192.47321662.932 1v.133c0 .55228475-.4477153 1-1 1h-21c-.5522847 0-1-.44771525-1-1zm.71 10.857 20.536-.012c.007 0 .012 0 .02.006.0348577.0039919.0699145.0059951.105.006.023 0 .043-.011.065-.012h.858l-1.486 16.012h-18.616zm-27.18-2-.42-4h18.78l-.42 4zm1.47-13h15c.5522847 0 1 .44771525 1 1v1.692l-17-1.392v-.3c0-.55228475.44771525-1 1-1zm-4 4.143c-.00002742-.54840296.44162446-.99451597.99-1h.066l19.872 1.631c.025 0 .047.014.072.014s.02-.006.03-.006l1.038.085c.5255656.03581995.9332192.47321662.932 1v.133c0 .55228475-.4477153 1-1 1h-21c-.55228475 0-1-.44771525-1-1zm.71 10.857 20.536-.012c.007 0 .012 0 .02.006.0348577.0039919.0699145.0059951.105.006.023 0 .043-.011.065-.012h.858l-1.486 16.012h-18.616zm-2.4 18.287c.18172996-.1850323.43065417-.2885703.69-.287h54c.5522847 0 1 .4477153 1 1 .000531.2698664-.1105861.5279331-.307.713-.1824558.1857836-.4326157.2893852-.693.287h-41c-.5522847 0-1 .4477153-1 1s.4477153 1 1 1h8.78l-1.44 7.191c-.0937909.4677615-.5029409.805519-.98.809h-13.72c-.47644514-.0032855-.88538244-.3400329-.98-.807l-1.44-7.193h3.78c.5522847 0 1-.4477153 1-1s-.4477153-1-1-1h-7c-.55228475 0-1-.4477153-1-1-.00053097-.2698664.11058611-.5279331.307-.713z"/></g></g></svg>